PERFORMER "Gabriel & Dresden"
TITLE "Essential Mix (2006-05-07)"
FILE "Gabriel_and_Dresden_-_Essential_Mix_(BBC_Radio_1)_07_05_2006.mp3" MP3
  TRACK 01 AUDIO
    PERFORMER "Essential Mix"
    TITLE "Intro"
    INDEX 01 00:00:00
  TRACK 02 AUDIO
    PERFORMER "Gabriel & Dresden with Scarlett Etienne"
    TITLE "Eleven"
    INDEX 01 00:55:41
  TRACK 03 AUDIO
    PERFORMER "Imogen Heap"
    TITLE "Hide & Seek (Mike Monday Remix) (a.k.a. Mike Monday - Immi)"
    INDEX 01 06:20:36
  TRACK 04 AUDIO
    PERFORMER "Kings Of Leon"
    TITLE "Milk (Stretch & Vern Remix)"
    INDEX 01 13:14:43
  TRACK 05 AUDIO
    PERFORMER "Depeche Mode"
    TITLE "Here Is The House (Gabriel & Dresden Bootleg)"
    INDEX 01 20:12:00
  TRACK 06 AUDIO
    PERFORMER "Gabriel & Dresden"
    TITLE "Mass Repeat"
    INDEX 01 27:53:09
  TRACK 07 AUDIO
    PERFORMER "Trick & Kubic feat. Valeska"
    TITLE "Easy"
    INDEX 01 33:46:29
  TRACK 08 AUDIO
    PERFORMER "Switch"
    TITLE "A Bit Patchy (Eric Prydz Remix)"
    INDEX 01 37:28:18
  TRACK 09 AUDIO
    PERFORMER "White Rose Movement"
    TITLE "Alsatian (Phones Gone To The Dogs Remix)"
    INDEX 01 43:10:29
  TRACK 10 AUDIO
    PERFORMER "Gabriel & Dresden feat. Jan Burton"
    TITLE "New Path"
    INDEX 01 47:05:50
  TRACK 11 AUDIO
    PERFORMER "Gabriel & Dresden feat. Molly Bancroft"
    TITLE "Tracking Treasure Down (Retrobyte Remix)"
    INDEX 01 52:32:18
  TRACK 12 AUDIO
    PERFORMER "Ellen Allien & Apparat"
    TITLE "Jet"
    INDEX 01 58:13:37
  TRACK 13 AUDIO
    PERFORMER "Gustavo Santaolalla"
    TITLE "The Wings (Gabriel & Dresden Organized Nature Remix)"
    INDEX 01 64:02:33
  TRACK 14 AUDIO
    PERFORMER "John Tejada vs. Holden & Thompson"
    TITLE "The End Of It All vs. Nothing"
    INDEX 01 71:31:74
  TRACK 15 AUDIO
    PERFORMER "Evermore"
    TITLE "It's Too Late (Dirty South Remix)"
    INDEX 01 77:17:40
  TRACK 16 AUDIO
    PERFORMER "Duoteque"
    TITLE "Adyra"
    INDEX 01 80:48:69
  TRACK 17 AUDIO
    PERFORMER "Gabriel & Dresden feat. Molly Bancroft"
    TITLE "Let Go"
    INDEX 01 88:15:69
  TRACK 18 AUDIO
    PERFORMER "Booka Shade vs. Retrobyte"
    TITLE "In White Rooms vs. Going Down (Acappella)"
    INDEX 01 94:00:71
  TRACK 19 AUDIO
    PERFORMER "Gabriel & Dresden feat. Jan Burton"
    TITLE "Enemy"
    INDEX 01 99:36:43
  TRACK 20 AUDIO
    PERFORMER "Koma & Bones"
    TITLE "Medium Cool (Bassbin Twins Dub)"
    INDEX 01 106:42:54
  TRACK 21 AUDIO
    PERFORMER "Nathan Fake"
    TITLE "Charlie's House (Apparat Remix)"
    INDEX 01 111:58:16